<?xml version="1.0"?>
<svg xmlns="http://www.w3.org/2000/svg" id="Layer_1" data-name="Layer 1" viewBox="0 0 512 512" width="512" height="512"><title>User</title><path d="M202,193.352A88.357,88.357,0,1,0,113.643,105,88.457,88.457,0,0,0,202,193.352Zm0-160.714A72.357,72.357,0,1,1,129.643,105,72.439,72.439,0,0,1,202,32.638Z"/><path d="M400.812,365H397v-8.463a40.6,40.6,0,0,0-12.122-28.986,39.467,39.467,0,0,0-27.9-11.538l-.548,0A40.6,40.6,0,0,0,316,356.537V365h-3.611A8.755,8.755,0,0,0,304,373.472v70.439A8.417,8.417,0,0,0,312.389,452h88.423A8.239,8.239,0,0,0,409,443.911V373.472A8.578,8.578,0,0,0,400.812,365ZM332,356.537A24.751,24.751,0,0,1,356.668,332h.2a23.722,23.722,0,0,1,16.742,6.906A24.724,24.724,0,0,1,381,356.537V365H332ZM393,436H320V381h73Z"/><path d="M356,426.433a8,8,0,0,0,8-8V407.942a8,8,0,0,0-16,0v10.491A8,8,0,0,0,356,426.433Z"/><path d="M359.637,272.705A80.33,80.33,0,0,0,279.715,200h0a7.906,7.906,0,0,0-6.447,3.164,88.561,88.561,0,0,1-142.529.024A7.928,7.928,0,0,0,124.289,200h0A80.236,80.236,0,0,0,44,280.122V422.086A7.927,7.927,0,0,0,52,430H255.207a111.363,111.363,0,1,0,104.43-157.3ZM60,414V280.122a64.41,64.41,0,0,1,60.432-64.205,104.436,104.436,0,0,0,163.135,0,64.428,64.428,0,0,1,60.066,57.405,111.515,111.515,0,0,0-98.432,110.6A107.677,107.677,0,0,0,249.343,414Zm296.6,65.362a95.4,95.4,0,1,1,95.4-95.4A95.508,95.508,0,0,1,356.6,479.362Z"/></svg>
